<svg height="512pt" viewBox="0 -84 512 512" width="512pt" xmlns="http://www.w3.org/2000/svg"><path d="m63.984375 109.957031v-58.953125l57.242187 20.238282 21.089844-51.074219 44.28125 29.707031 32.386719-39.871094 37 37.335938 47-31.003906 17.355469 46.609374 44.40625-18.941406 6.957031 46.277344zm0 0" fill="#00a570"/><path d="m153.1875 206.003906h348.8125v-55.128906l-75.085938-28.339844c1.121094-2.964844 1.738282-6.175781 1.738282-9.53125 0-14.914062-12.089844-27-27-27-8.699219 0-16.433594 4.117188-21.371094 10.507813-43.140625-32.75-95.820312-50.507813-150.023438-50.507813-71.355468 0-139.261718 30.71875-186.367187 84.316406l-5.832031 6.636719c-18.085938 20.570313-28.058594 47.023438-28.058594 74.414063 0 20.058594 5.351562 39.75 15.503906 57.046875 23.835938 40.628906 67.417969 65.585937 114.519532 65.585937h80.707031c41.492187 0 81.078125-17.414062 109.113281-48h-137.859375c-44.191406 0-80.023437-35.808594-80.058594-80zm0 0" fill="#36d28f"/><path d="m48.988281 283.609375c-3.691406-4.105469-10.015625-4.441406-14.125-.75-4.105469 3.691406-4.441406 10.011719-.753906 14.121094l.246094.269531c1.972656 2.164062 4.679687 3.261719 7.390625 3.261719 2.40625 0 4.820312-.863281 6.738281-2.613281 4.078125-3.71875 4.371094-10.046876.648437-14.125zm0 0"/><path d="m505.53125 141.519531-67.019531-25.292969c.09375-1.070312.140625-2.144531.140625-3.226562 0-20.402344-16.597656-37-37-37-7.648438 0-14.914063 2.304688-21.003906 6.519531l-6.015626-40.003906c-.457031-3.058594-2.3125-5.734375-5.011718-7.242187-2.703125-1.507813-5.953125-1.683594-8.800782-.46875l-34.765624 14.828124-13.699219-36.789062c-1.0625-2.855469-3.371094-5.070312-6.269531-6.015625-2.894532-.945313-6.066407-.519531-8.609376 1.15625l-40.160156 26.492187-31.230468-31.515624c-1.996094-2.015626-4.757813-3.082032-7.59375-2.9492192-2.835938.1406252-5.480469 1.4765622-7.269532 3.6835932l-26.632812 32.789063-36.699219-24.621094c-2.492187-1.667969-5.601563-2.132812-8.472656-1.265625-2.867188.871094-5.199219 2.980469-6.34375 5.753906l-17.464844 42.296876-48.292969-17.074219c-3.058594-1.082031-6.457031-.613281-9.105468 1.261719-2.648438 1.875-4.226563 4.921874-4.226563 8.167968v54.585938c-6.128906 5.730468-12.015625 11.765625-17.605469 18.128906l-5.835937 6.636719c-19.695313 22.40625-30.542969 51.179687-30.542969 81.015625 0 16.875 3.398438 33.28125 10.105469 48.765625 2.195312 5.070312 8.082031 7.398437 13.148437 5.203125 5.066406-2.195313 7.398438-8.082032 5.203125-13.148438-5.609375-12.960937-8.457031-26.695312-8.457031-40.820312 0-24.972656 9.078125-49.058594 25.566406-67.8125l5.832032-6.636719c45.203124-51.425781 110.394531-80.917969 178.859374-80.917969 51.671876 0 102.800782 17.214844 143.976563 48.472656 4.371094 3.316407 10.601563 2.492188 13.957031-1.851562 3.253906-4.207031 8.160156-6.621094 13.460938-6.621094 9.371094 0 17 7.625 17 17 0 2.0625-.371094 4.082032-1.09375 6-.9375 2.480469-.847656 5.234375.242187 7.652344 1.09375 2.414062 3.101563 4.300781 5.582031 5.234375l58.234376 21.980469c-.730469.425781-1.421876.9375-2.050782 1.566406l-8.289062 8.289062-8.292969-8.289062c-3.90625-3.90625-10.234375-3.90625-14.140625 0l-8.292969 8.289062-8.289062-8.289062c-3.90625-3.90625-10.238281-3.90625-14.144531 0l-8.289063 8.289062-8.292969-8.289062c-3.902344-3.90625-10.234375-3.90625-14.140625 0-3.90625 3.902344-3.90625 10.234375 0 14.140625l15.363281 15.363281c3.902344 3.902344 10.234376 3.902344 14.140626 0l8.292968-8.292968 8.289063 8.292968c3.90625 3.902344 10.238281 3.902344 14.140625 0l8.292968-8.292968 8.289063 8.292968c3.90625 3.902344 10.238281 3.902344 14.144531 0l8.289063-8.292968 5.363281 5.363281v13.992187h-174.46875v-10.25c0-23.574218-19.179688-42.75-42.75-42.75h-33.75c-5.523438 0-10 4.476563-10 10 0 5.519532 4.476562 10 10 10h33.75c12.542969 0 22.75 10.203125 22.75 22.75v10.25h-84.765625v-10.25c0-23.574218-19.175781-42.75-42.75-42.75h-33.75c-5.523437 0-10 4.476563-10 10 0 5.519532 4.476563 10 10 10h33.75c12.546875 0 22.75 10.203125 22.75 22.75v10.25h-80.839844c-2.652343 0-5.195312 1.054688-7.074219 2.929688-1.875 1.878906-2.925781 4.421875-2.925781 7.074218.039063 49.625 40.4375 89.996094 90.058594 89.996094h112.0625c-23.808594 17.996094-53.101563 28-83.316406 28h-80.707031c-21.820313 0-43.304688-5.835937-62.125-16.878906-4.765626-2.796875-10.890626-1.199219-13.6875 3.5625-2.792969 4.765625-1.195313 10.894531 3.566406 13.6875 21.886718 12.839844 46.871094 19.628906 72.246094 19.628906h80.707031c44.175781 0 86.632812-18.679687 116.488281-51.246094 2.679688-2.921874 3.378906-7.152343 1.78125-10.78125-1.597656-3.628906-5.1875-5.972656-9.152344-5.972656h-137.863281c-35.203125 0-64.441406-26.125-69.335937-60h379.351562c5.523438 0 10-4.480468 10-10v-55.128906c0-4.160156-2.574219-7.886719-6.46875-9.355469zm-146.957031-71.3125c-4.34375-2.480469-8.753907-4.832031-13.230469-7.054687l11.433594-4.878906zm-60.574219-38.605469 5.636719 15.136719c-6.8125-2.023437-13.707031-3.761719-20.664063-5.222656zm-151.105469 3.679688 14.878907 9.980469c-7.425782 2.042969-14.742188 4.433593-21.941407 7.125zm-72.910156 29.863281 22.8125 8.066407c-7.859375 4.746093-15.472656 9.917968-22.8125 15.5zm156.273437-29.140625c-6.753906 0-13.472656.269532-20.152343.792969l9.617187-11.84375 10.953125 11.054687c-.140625 0-.277343-.003906-.417969-.003906zm0 0"/><path d="m405.054688 131.742188c1.859374-1.859376 2.929687-4.441407 2.929687-7.070313s-1.070313-5.210937-2.929687-7.070313c-1.859376-1.871093-4.441407-2.929687-7.070313-2.929687s-5.210937 1.058594-7.070313 2.929687c-1.859374 1.859376-2.929687 4.441407-2.929687 7.070313s1.070313 5.210937 2.929687 7.070313c1.859376 1.859374 4.441407 2.929687 7.070313 2.929687s5.210937-1.070313 7.070313-2.929687zm0 0"/></svg>