<svg height="512pt" viewBox="-43 0 512 512.08148" width="512pt" xmlns="http://www.w3.org/2000/svg"><path d="m417.746094 239.015625v102.398437c0 47.128907-38.203125 85.335938-85.332032 85.335938h-238.507812c-47.128906 0-85.332031-38.207031-85.332031-85.335938v-102.398437c0-56.386719 45.585937-102.164063 101.972656-102.402344h205.226563c56.386718.238281 101.972656 46.015625 101.972656 102.402344zm0 0" fill="#283593"/><path d="m392.574219 239.015625v102.398437c0 47.128907-38.207031 85.335938-85.332031 85.335938h-213.335938c-47.128906 0-85.332031-38.207031-85.332031-85.335938v-102.398437c0-56.386719 45.585937-102.164063 101.972656-102.402344h180.054687c56.386719.238281 101.972657 46.015625 101.972657 102.402344zm0 0" fill="#3f51b5"/><path d="m307.242188 377.765625v108.714844c-.03125 9.414062-7.652344 17.039062-17.066407 17.066406h-34.136719c-9.414062-.027344-17.035156-7.652344-17.066406-17.066406v-76.800781h-51.199218v76.800781c-.027344 9.414062-7.652344 17.039062-17.066407 17.066406h-34.132812c-9.414063-.027344-17.039063-7.652344-17.066407-17.066406v-108.714844zm0 0" fill="#4527a0"/><path d="m61.140625 364.796875c.511719 3.15625 1.195313 7.339844 2.21875 12.289063-1.964844 2.21875-3.757813 4.433593-5.378906 6.398437-1.117188 1.398437-2.992188 1.945313-4.691407 1.375-1.695312-.574219-2.855468-2.144531-2.902343-3.933594-.171875-5.378906 0-10.753906.34375-16.128906 1.191406-1.023437 2.472656-1.964844 3.753906-2.902344 1.214844-.84375 2.78125-.996093 4.136719-.40625 1.355468.59375 2.308594 1.84375 2.519531 3.308594zm0 0" fill="#673ab7"/><path d="m63.613281 241.574219c1.429688 1.308593 1.78125 3.421875.855469 5.121093-.171875.253907-.257812.511719-.429688.765626-1.066406-1.070313-1.460937-2.644532-1.023437-4.09375.160156-.609376.359375-1.207032.597656-1.792969zm0 0" fill="#673ab7"/><path d="m338.214844 377.085938c-3.933594 23.601562-12.117188 46.296874-24.148438 66.984374-.984375 1.46875-2.777344 2.171876-4.5 1.777344-1.722656-.398437-3.019531-1.816406-3.265625-3.570312-.992187-6.125-2.621093-12.128906-4.863281-17.917969-.273438-.742187-.746094-1.390625-1.363281-1.878906 7.050781-18.648438 12.144531-37.980469 15.1875-57.683594.210937-1.464844 1.164062-2.714844 2.519531-3.308594 1.355469-.589843 2.921875-.4375 4.136719.40625 5.972656 4.453125 11.4375 9.546875 16.296875 15.191407zm0 0" fill="#6a1b9a"/><path d="m290.941406 171.859375c-1.40625-1.03125-2.035156-2.820313-1.582031-4.5.457031-1.683594 1.898437-2.914063 3.628906-3.097656 6.117188-.800781 11.992188-2.894531 17.238281-6.144531 1.300782-.769532 2.074219-2.191407 2.019532-3.699219-.050782-1.511719-.925782-2.875-2.273438-3.550781-2.449218-1.273438-4.816406-2.695313-7.082031-4.269532-13.191406-9.191406-23.488281-21.949218-29.699219-36.777344-3.714844-8.769531-6.433594-17.929687-8.105468-27.308593-.992188-8.359375-2.734376-16.613281-5.207032-24.660157-9.875-25.359374-32.375-43.644531-59.21875-48.128906 4.195313-.753906 8.449219-1.125 12.714844-1.109375 31.726562.171875 60.136719 19.6875 71.679688 49.238281 2.46875 8.046876 4.210937 16.300782 5.203124 24.660157 1.671876 9.378906 4.390626 18.539062 8.109376 27.308593 6.207031 14.828126 16.507812 27.585938 29.695312 36.777344 2.265625 1.574219 4.632812 2.996094 7.082031 4.269532 1.351563.675781 2.222657 2.039062 2.277344 3.550781.050781 1.507812-.722656 2.929687-2.019531 3.699219-5.246094 3.25-11.121094 5.34375-17.238282 6.144531-1.734374.183593-3.175781 1.414062-3.628906 3.097656-.453125 1.679687.171875 3.46875 1.582032 4.5 23.449218 17.8125 40.21875 43 47.613281 71.507813.488281 1.742187-.160157 3.605468-1.625 4.671874-1.464844 1.0625-3.4375 1.105469-4.945313.105469-4.585937-3.285156-9.652344-5.847656-15.019531-7.59375-1.460937-.460937-3.054687-.101562-4.179687.9375-7.566407-27.757812-24.097657-52.238281-47.019532-69.628906zm0 0" fill="#6a1b9a"/><path d="m376.359375 380.925781c-.042969 1.789063-1.203125 3.359375-2.902344 3.933594-1.695312.570313-3.570312.023437-4.691406-1.375-5.3125-6.832031-11.316406-13.09375-17.917969-18.6875-3.671875-48.898437-28.757812-99.414063-38.914062-118.101563-.855469-1.53125-.6875-3.429687.421875-4.789062 1.113281-1.355469 2.945312-1.894531 4.613281-1.355469 5.367188 1.746094 10.429688 4.308594 15.019531 7.59375 1.761719 1.183594 4.125.894531 5.546875-.683593 11.605469 21.507812 40.53125 80.640624 38.824219 133.464843zm0 0" fill="#6a1b9a"/><g fill="#673ab7"><path d="m282.066406 377.765625v108.714844c-.027344 9.414062-7.652344 17.039062-17.066406 17.066406h-8.960938c-9.414062-.027344-17.035156-7.652344-17.066406-17.066406v-76.800781h-76.371094v76.800781c-.027343 9.414062-7.652343 17.039062-17.066406 17.066406h-8.960937c-9.414063-.027344-17.039063-7.652344-17.066407-17.066406v-108.714844zm0 0"/><path d="m350.847656 364.796875c-1.195312-1.023437-2.476562-1.964844-3.757812-2.902344-1.214844-.84375-2.78125-.996093-4.136719-.40625-1.355469.59375-2.308594 1.84375-2.519531 3.308594-.511719 3.15625-1.277344 7.339844-2.21875 12.289063-4.859375-5.644532-10.324219-10.738282-16.296875-15.191407-1.214844-.84375-2.78125-.996093-4.136719-.40625-1.355469.59375-2.308594 1.84375-2.519531 3.308594-3.042969 19.703125-8.136719 39.035156-15.1875 57.683594-1.769531-1.378907-4.304688-1.15625-5.804688.511719-4.980469 5.46875-9.492187 11.351562-13.480469 17.578124-2.515624 3.890626-4.601562 8.039063-6.230468 12.375-.492188 1.453126-1.738282 2.523438-3.246094 2.789063-1.511719.265625-3.046875-.3125-4.007812-1.507813-3.859376-4.925781-7.363282-10.117187-10.496094-15.53125-2.257813-3.886718-4.28125-7.90625-6.058594-12.03125-.628906-1.480468-2.035156-2.480468-3.640625-2.589843s-3.132813.695312-3.953125 2.078125c-3.027344 5.261718-6.332031 10.359375-9.898438 15.273437-5.097656 7.882813-11.890624 14.53125-19.882812 19.457031-4.765625-2.628906-9.015625-6.097656-12.546875-10.242187-6.527344-7.582031-12.300781-15.785156-17.234375-24.488281-.824219-1.382813-2.351562-2.1875-3.957031-2.078125-1.601563.109375-3.011719 1.109375-3.636719 2.589843-2.230469 5.085938-4.796875 10.015626-7.683594 14.761719-2.695312 4.441407-5.65625 8.71875-8.871094 12.800781-.960937 1.195313-2.496093 1.773438-4.007812 1.507813s-2.753906-1.335937-3.246094-2.789063c-1.875-5.027343-4.402344-9.792968-7.511718-14.164062-3.625-5.589844-7.707032-10.871094-12.203126-15.789062-.996093-1.105469-2.5-1.613282-3.96875-1.335938-1.464843.28125-2.675781 1.304688-3.199218 2.703125-2.0625 5.234375-3.578125 10.667969-4.519532 16.210937-.148437.5625-.261718 1.132813-.34375 1.707032-.242187 1.753906-1.542968 3.171875-3.265624 3.570312-1.722657.394532-3.511719-.308594-4.5-1.777344-4.4375-6.789062-8.15625-14.027343-11.09375-21.589843-7.113282-18.632813-12.230469-37.96875-15.273438-57.683594-.210938-1.464844-1.164062-2.714844-2.519531-3.308594-1.355469-.589843-2.921875-.4375-4.136719.40625-5.96875 4.453125-11.4375 9.546875-16.296875 15.191407-1.023437-4.949219-1.707031-9.132813-2.21875-12.289063-.210937-1.464844-1.164063-2.714844-2.519531-3.308594-1.355469-.589843-2.921875-.4375-4.136719.40625-1.28125.9375-2.5625 1.878907-3.753906 2.902344 3.667969-48.898437 28.753906-99.414063 38.910156-118.101563.855469-1.53125.6875-3.429687-.421875-4.789062-1.113281-1.355469-2.941406-1.894531-4.613281-1.355469-5.363281 1.746094-10.429688 4.308594-15.019531 7.59375-1.761719 1.183594-4.125.894531-5.546876-.683593.171876-.253907.257813-.511719.429688-.765626.925781-1.699218.574219-3.8125-.855469-5.121093 7.515625-27.808594 24.054688-52.332031 47.019531-69.714844 1.40625-1.03125 2.035157-2.820313 1.582032-4.5-.453125-1.683594-1.898438-2.914063-3.628906-3.097656-6.117188-.800781-11.992188-2.894531-17.238282-6.144531-1.300781-.769532-2.074218-2.191407-2.019531-3.699219.054687-1.511719.925781-2.875 2.273437-3.550781 4.003907-2.136719 7.828126-4.589844 11.4375-7.339844 17.734376-15.089844 29.527344-35.988282 33.277344-58.964844 1.125-9.824219 3.210938-19.515625 6.230469-28.929688 10.304687-24.1875 32.195313-41.484374 58.113281-45.910156 26.84375 4.484375 49.34375 22.769532 59.21875 48.128906 2.472656 8.046876 4.214844 16.300782 5.207032 24.660157 1.671874 9.378906 4.390624 18.539062 8.105468 27.308593 6.210938 14.828126 16.507813 27.585938 29.699219 36.777344 2.265625 1.574219 4.632813 2.996094 7.082031 4.269532 1.347656.675781 2.222656 2.039062 2.273438 3.550781.054687 1.507812-.71875 2.929687-2.019532 3.699219-5.246093 3.25-11.121093 5.34375-17.238281 6.144531-1.730469.183593-3.171875 1.414062-3.628906 3.097656-.453125 1.679687.175781 3.46875 1.582031 4.5 22.921875 17.390625 39.453125 41.871094 47.019532 69.628906-1.421876 1.347657-1.773438 3.476563-.855469 5.207031.171875.253907.257812.511719.429687.765626-1.421875 1.578124-3.785156 1.867187-5.546875.683593-4.589843-3.285156-9.652343-5.847656-15.019531-7.59375-1.667969-.539062-3.5 0-4.613281 1.355469-1.109375 1.359375-1.277344 3.257812-.421875 4.789062 10.15625 18.6875 35.242187 69.203126 38.914062 118.101563zm0 0"/><path d="m337.535156 247.460938c-.171875-.253907-.257812-.511719-.429687-.765626-.917969-1.730468-.566407-3.859374.855469-5.207031.238281.613281.4375 1.242188.597656 1.878907.4375 1.449218.046875 3.023437-1.023438 4.09375zm0 0"/></g><path d="m261.867188 201.46875c15.664062 17.664062 25.542968 39.699219 28.308593 63.144531-8.03125-4.171875-16.671875-7.054687-25.601562-8.53125 10.210937 21.378907 16.015625 44.597657 17.066406 68.265625-8.03125-4.175781-16.671875-7.054687-25.601563-8.53125 0 0 8.535157 42.664063-25.597656 59.730469 0 0-8.535156-25.597656-17.066406-25.597656-8.535156 0-17.066406 25.597656-17.066406 25.597656-34.132813-17.066406-25.601563-59.730469-25.601563-59.730469-8.929687 1.476563-17.570312 4.355469-25.601562 8.53125 1.050781-23.667968 6.855469-46.886718 17.070312-68.265625-8.929687 1.476563-17.570312 4.359375-25.601562 8.53125 2.765625-23.445312 12.640625-45.480469 28.304687-63.144531 3.214844-3.292969 7.628906-5.140625 12.226563-5.121094h72.535156c4.601563-.019531 9.011719 1.828125 12.226563 5.121094zm0 0" fill="#283593"/><path d="m320.324219 128.328125c-5.863281-6.492187-10.640625-13.882813-14.148438-21.894531-3.4375-8.234375-5.960937-16.820313-7.527343-25.601563-.453126-2.335937-.8125-4.675781-1.179688-7.015625-.773438-6.488281-2.253906-12.875-4.417969-19.042968-12.480469-32.535157-43.488281-54.214844-78.332031-54.7617192-34.839844-.5507808-66.515625 20.1406252-80.011719 52.2695312-2.722656 7.136719-4.523437 14.59375-5.351562 22.183594-.425781 2.808594-.855469 5.617187-1.398438 8.40625-3.003906 16.757812-10.378906 32.425781-21.386719 45.414062-59.421874 2.453125-106.375 51.257813-106.5312495 110.730469v102.398437c.0195313 27.003907 11.6953125 52.683594 32.0351565 70.445313l-14.070313 28.15625c-1.363281 2.730469-1.167968 5.980469.515625 8.523437 1.679688 2.542969 4.59375 4 7.636719 3.8125 3.042969-.183593 5.757812-1.976562 7.121094-4.707031l12.800781-25.597656c4.160156 2.496094 8.507813 4.660156 13.003906 6.476563l-7.578125 30.300781c-1.144531 4.570312 1.632813 9.207031 6.207032 10.351562.671874.164063 1.367187.246094 2.0625.238281 3.910156-.003906 7.320312-2.664062 8.269531-6.457031l7.382812-29.519531c6.082031 1.222656 12.273438 1.839844 18.480469 1.84375h4.082031c2.222657 4.710938 4.789063 9.25 7.679688 13.585938 1.339843 1.914062 3.175781 3.429687 5.316406 4.378906v33.234375c0 14.140625 11.460937 25.601562 25.597656 25.601562h34.132813c14.140625 0 25.601562-11.460937 25.601562-25.601562v-28.296875c3.8125 4.167968 8.285156 7.671875 13.242188 10.378906 2.402344 1.199219 5.226562 1.199219 7.628906 0 4.960938-2.707031 9.4375-6.210938 13.253906-10.378906v28.296875c0 14.140625 11.460938 25.601562 25.597656 25.601562h34.136719c14.136719 0 25.597657-11.460937 25.597657-25.601562v-33.277344c2.140624-.949219 3.976562-2.460937 5.316406-4.378906 2.890625-4.335938 5.457031-8.875 7.679687-13.585938h3.652344c6.203125-.003906 12.394531-.621093 18.476563-1.84375l7.378906 29.519531c.953125 3.792969 4.359375 6.453126 8.269531 6.457032.703125.003906 1.402344-.082032 2.082031-.253906 4.570313-1.144532 7.347656-5.78125 6.203125-10.351563l-7.566406-30.300781c4.492187-1.820313 8.835937-3.984375 12.996094-6.476563l12.796875 25.597657c1.351562 2.753906 4.070312 4.570312 7.128906 4.761718s5.984375-1.269531 7.667969-3.832031c1.683593-2.558594 1.863281-5.828125.472656-8.558594l-14.074219-28.160156c20.324219-17.746094 32-43.402344 32.027344-70.382813v-102.398437c-.164062-59.242187-46.78125-107.9375-105.957031-110.6875zm-303.21875 213.085937v-102.398437c.105469-40.5625 26.179687-76.492187 64.710937-89.164063-.574218 1.355469-.910156 2.796876-1 4.265626-.152344 4.585937 2.160156 8.902343 6.058594 11.316406 3.589844 2.203125 7.433594 3.972656 11.445312 5.261718-21.078124 18.636719-36.191406 43.074219-43.453124 70.257813-1.5625 5.207031.332031 10.835937 4.730468 14.03125 4.398438 3.199219 10.339844 3.269531 14.8125.175781.597656-.402344 1.183594-.792968 1.765625-1.167968-14.097656 28.203124-35.816406 79.742187-34.320312 127.1875.125 5.398437 3.625 10.136718 8.746093 11.84375 5.121094 1.707031 10.765626.019531 14.105469-4.222657 4.363281-5.578125 9.191407-10.777343 14.429688-15.539062 2.738281 15.210937 6.648437 30.1875 11.691406 44.800781-41.148437-1.652344-73.671875-35.464844-73.722656-76.648438zm153.601562 153.601563h-8.53125v-8.535156c0-4.710938-3.820312-8.53125-8.535156-8.53125-4.710937 0-8.535156 3.820312-8.535156 8.53125v8.535156h-8.53125c-4.714844 0-8.535157-3.820313-8.535157-8.535156v-40.105469c.386719-.871094.675782-1.78125.855469-2.714844.496094-3.140625 1.179688-6.25 2.046875-9.308594 5.503906 6.351563 9.933594 13.558594 13.125 21.332032 1.503906 4.410156 5.296875 7.648437 9.886719 8.445312 4.59375.796875 9.253906-.976562 12.15625-4.621094 4.953125-6.285156 9.347656-12.992187 13.132813-20.046874v47.019531c0 4.714843-3.820313 8.535156-8.535157 8.535156zm42.667969-44.246094c-9.082031-8.269531-16.660156-18.046875-22.410156-28.902343-2.265625-3.9375-6.464844-6.359376-11.007813-6.347657h-.757812c-4.839844.28125-9.105469 3.269531-11.019531 7.722657-3.003907 6.925781-6.699219 13.53125-11.023438 19.71875-5.011719-9.277344-11.15625-17.898438-18.296875-25.660157-2.96875-3.320312-7.449219-4.859375-11.832031-4.0625-4.382813.800781-8.035156 3.816407-9.644532 7.972657-1.15625 2.929687-2.15625 5.917968-2.996093 8.949218-1.089844-2.132812-2.125-4.359375-3.121094-6.628906l-.113281-.246094c-7.722656-19.269531-13.222656-39.355468-16.390625-59.871094-.699219-4.351562-3.585938-8.035156-7.644531-9.757812-4.054688-1.71875-8.710938-1.230469-12.324219 1.292969-5.730469 4.171875-11.007813 8.933593-15.746094 14.207031 2.5625-49.195312 29.398437-102.398438 38.09375-118.433594 2.488281-4.578125 1.957031-10.207031-1.347656-14.234375-3.304688-4.027343-8.71875-5.648437-13.695313-4.105469-2.511718.789063-4.964844 1.761719-7.339844 2.902344 7.628907-22.511718 21.878907-42.195312 40.882813-56.472656 4.253906-3.019531 6.203125-8.347656 4.898437-13.398438-1.285156-5.140624-5.609374-8.960937-10.871093-9.597656-2.347657-.304687-4.660157-.851562-6.894531-1.632812 1.894531-1.246094 3.746093-2.558594 5.539062-3.992188 19.339844-16.34375 32.246094-39.023437 36.417969-64 .597656-3.039062 1.066406-6.109375 1.527343-9.171875.648438-6.167969 2.050782-12.234375 4.175782-18.058593 10.789062-25.710938 36.125-42.273438 64.003906-41.84375 27.878906.433593 52.695312 17.773437 62.679688 43.808593 1.707031 5.042969 2.875 10.25 3.492187 15.539063.390625 2.558594.792969 5.117187 1.277344 7.628906 1.800781 9.992188 4.699219 19.761719 8.636719 29.121094 4.324218 9.859375 10.234374 18.941406 17.503906 26.882812.753906 1.589844 1.980468 2.90625 3.515625 3.769532 3.601562 3.625 7.527343 6.910156 11.730469 9.8125l.734374.496093c-2.238281.78125-4.550781 1.328125-6.902343 1.628907-5.257813.644531-9.578125 4.460937-10.863281 9.601562-1.300782 5.050781.644531 10.378906 4.898437 13.398438 19.007813 14.273437 33.257813 33.957031 40.882813 56.472656-2.367188-1.144532-4.820313-2.109375-7.328126-2.894532-4.976562-1.546874-10.390624.074219-13.699218 4.101563-3.304688 4.023437-3.839844 9.652344-1.355469 14.230469 8.695313 16.050781 35.515625 69.238281 38.09375 118.433594-4.734375-5.273438-10.007813-10.03125-15.734375-14.199219-3.613281-2.527344-8.273438-3.019531-12.332031-1.296875-4.0625 1.71875-6.949219 5.40625-7.644531 9.761718-3.101563 19.847657-8.34375 39.304688-15.636719 58.027344-.894531 1.125-1.480469 2.460938-1.703125 3.882813-.753906 1.636719-1.527344 3.25-2.332032 4.8125-.839843-3.039063-1.839843-6.035157-2.996093-8.96875-1.605469-4.15625-5.261719-7.171875-9.644531-7.972657-4.382813-.796874-8.863282.742188-11.832032 4.0625-7.136718 7.777344-13.28125 16.410157-18.289062 25.703126-4.3125-6.183594-7.992188-12.785157-10.988282-19.703126-1.917968-4.421874-6.15625-7.394531-10.964843-7.6875-4.8125-.292968-9.378907 2.140626-11.820313 6.296876-5.757812 10.855468-13.351562 20.632812-22.441406 28.902343zm76.800781 44.246094h-8.535156v-8.535156c0-4.710938-3.820313-8.53125-8.535156-8.53125-4.710938 0-8.53125 3.820312-8.53125 8.53125v8.535156h-8.535157c-4.710937 0-8.53125-3.820313-8.53125-8.535156v-47.019531c3.777344 7.054687 8.167969 13.757812 13.125 20.039062 2.894532 3.652344 7.554688 5.429688 12.148438 4.636719s8.386719-4.03125 9.890625-8.445313c3.1875-7.773437 7.621094-14.980468 13.125-21.332031.867187 3.0625 1.550781 6.175781 2.046875 9.320313.183594.929687.46875 1.835937.855469 2.703124v40.097657c0 4.710937-3.816407 8.53125-8.523438 8.535156zm119.039063-153.601563c-.050782 41-32.296875 74.726563-73.25 76.621094 5.039062-14.601562 8.945312-29.570312 11.679687-44.773437 5.242188 4.761719 10.066407 9.960937 14.429688 15.539062 3.347656 4.214844 8.972656 5.882813 14.078125 4.179688 5.105468-1.707031 8.597656-6.421875 8.742187-11.800781 1.457031-47.4375-20.257812-98.984376-34.355469-127.144532.578126.375 1.167969.765625 1.765626 1.167969 4.472656 3.089844 10.40625 3.019531 14.804687-.175781 4.394531-3.195313 6.296875-8.816406 4.738281-14.023438-7.257812-27.1875-22.375-51.625-43.453125-70.265625 4.011719-1.292969 7.851563-3.0625 11.445313-5.265625 3.898437-2.410156 6.210937-6.726562 6.058594-11.3125-.078126-1.398437-.386719-2.773437-.914063-4.070312 38.261719 12.804687 64.101563 48.578125 64.230469 88.925781zm0 0"/><path d="m179.242188 76.882812v17.066407c0 4.710937 3.820312 8.53125 8.53125 8.53125 4.714843 0 8.535156-3.820313 8.535156-8.53125v-17.066407c4.710937 0 8.53125-3.820312 8.53125-8.535156 0-4.710937-3.820313-8.53125-8.53125-8.53125h-17.066406c-4.714844 0-8.535157 3.820313-8.535157 8.53125 0 4.714844 3.820313 8.535156 8.535157 8.535156zm0 0"/><path d="m230.441406 76.882812v17.066407c0 4.710937 3.820313 8.53125 8.53125 8.53125 4.714844 0 8.535156-3.820313 8.535156-8.53125v-17.066407c4.710938 0 8.53125-3.820312 8.53125-8.535156 0-4.710937-3.820312-8.53125-8.53125-8.53125h-17.066406c-4.714844 0-8.535156 3.820313-8.535156 8.53125 0 4.714844 3.820312 8.535156 8.535156 8.535156zm0 0"/><path d="m179.242188 153.679688h68.265624c4.710938 0 8.53125-3.820313 8.53125-8.53125 0-4.714844-3.820312-8.535157-8.53125-8.535157h-8.535156v-8.53125c0-4.714843-3.820312-8.535156-8.53125-8.535156-4.714844 0-8.535156 3.820313-8.535156 8.535156v8.53125h-17.066406v-8.53125c0-4.714843-3.820313-8.535156-8.53125-8.535156-4.714844 0-8.535156 3.820313-8.535156 8.535156v8.53125h-8.53125c-4.714844 0-8.535157 3.820313-8.535157 8.535157 0 4.710937 3.820313 8.53125 8.535157 8.53125zm0 0"/><path d="m265.613281 326.773438c4.164063 1.511718 8.242188 3.253906 12.214844 5.210937 2.644531 1.324219 5.785156 1.179687 8.300781-.375s4.046875-4.304687 4.046875-7.261719c-.496093-18.929687-4.199219-37.636718-10.949219-55.328125 2.636719 1.089844 5.121094 2.234375 7.132813 3.234375 2.871094 1.433594 6.304687 1.132813 8.886719-.777344 2.582031-1.90625 3.871094-5.105468 3.34375-8.269531-9.039063-54.222656-36.644532-73.183593-37.8125-73.957031-3.910156-2.617188-9.199219-1.578125-11.824219 2.324219-2.628906 3.902343-1.601563 9.191406 2.292969 11.832031.195312.136719 17.621094 12.585938 27.09375 47-4.417969-1.644531-9.058594-2.609375-13.765625-2.859375-2.964844-.015625-5.726563 1.507813-7.292969 4.027344s-1.710938 5.667969-.386719 8.320312c7.636719 16.175781 12.8125 33.402344 15.359375 51.109375-8.378906-3.074218-18.160156-6.207031-22.785156-.609375-1.621094 1.96875-2.28125 4.5625-1.789062 7.066407.253906 1.324218 5.382812 29.234374-13.050782 45.160156-4.929687-11.152344-11.953125-21.207032-21.253906-21.207032s-16.324219 10.054688-21.25 21.207032c-18.429688-15.925782-13.300781-43.828125-13.054688-45.132813.5-2.507812-.148437-5.105469-1.765624-7.082031-4.609376-5.617188-14.40625-2.484375-22.792969.597656 2.554687-17.703125 7.726562-34.925781 15.34375-51.109375 1.324219-2.652343 1.175781-5.800781-.386719-8.320312-1.566406-2.519531-4.328125-4.042969-7.292969-4.027344-4.710937.253906-9.355469 1.214844-13.773437 2.859375 9.480468-34.40625 26.894531-46.855469 27.042968-46.933594 2.535157-1.691406 3.976563-4.609375 3.777344-7.652344-.195312-3.039062-2-5.746093-4.734375-7.097656-2.734375-1.351562-5.980469-1.140625-8.515625.550782-1.171875.777343-28.777344 19.738281-37.8125 73.957031-.53125 3.167969.761719 6.363281 3.339844 8.273437 2.582031 1.910156 6.015625 2.207032 8.886719.773438 1.988281-.996094 4.5-2.140625 7.136719-3.242188-6.746094 17.6875-10.445313 36.390625-10.949219 55.3125-.015625 2.964844 1.507812 5.726563 4.027343 7.292969 2.515626 1.566406 5.667969 1.714844 8.320313.386719 3.972656-1.960938 8.046875-3.703125 12.210937-5.222656-1.382812 23.300781 10.839844 45.296874 31.359376 56.421874 2.21875 1.121094 4.8125 1.21875 7.105468.269532 2.296875-.949219 4.0625-2.851563 4.84375-5.207032 2.09375-6.582031 5.101563-12.839843 8.933594-18.585937 3.847656 5.730469 6.871094 11.976563 8.976562 18.550781.78125 2.34375 2.542969 4.234375 4.828126 5.179688 2.28125.945312 4.863281.855468 7.074218-.25 20.519532-11.121094 32.746094-33.113282 31.359375-56.410156zm0 0"/></svg>